<?xml version="1.0" encoding="UTF-8"?>
<svg version="1.1" xmlns="http://www.w3.org/2000/svg" width="1024" height="1024">
<path d="M0 0 C337.92 0 675.84 0 1024 0 C1024 337.92 1024 675.84 1024 1024 C686.08 1024 348.16 1024 0 1024 C0 686.08 0 348.16 0 0 Z " fill="#FDFEFE" transform="translate(0,0)"/>
<path d="M0 0 C345.08648649 0 345.08648649 0 397 49 C398.01320313 49.93392578 398.01320313 49.93392578 399.046875 50.88671875 C425.86283385 76.46914349 438.30109947 114.46105409 439.28540039 150.83422852 C439.74581145 190.81532961 425.78621025 227.86463868 397.875 256.5 C388.26628155 266.04834807 368.02708487 285 354 285 C354 285.66 354 286.32 354 287 C354.60440918 287.16870605 355.20881836 287.33741211 355.83154297 287.51123047 C381.27338327 294.84541782 403.77232581 307.88355742 423 326 C423.90298828 326.82371094 423.90298828 326.82371094 424.82421875 327.6640625 C451.5506189 352.95757873 465.28148412 392.70125857 466.3359375 428.83984375 C466.36615883 431.54060692 466.38322083 434.23701792 466.375 436.9375 C466.37412384 437.65033142 466.37324768 438.36316284 466.37234497 439.09759521 C466.19794863 482.49874952 450.25880476 522.08908136 421 554 C420.36578125 554.69351563 419.7315625 555.38703125 419.078125 556.1015625 C406.27855153 569.44968912 390.27176132 579.45539737 374 588 C373.34580078 588.34417969 372.69160156 588.68835938 372.01757812 589.04296875 C266.44876418 643.65835119 80.19419637 615 0 615 C0 412.05 0 209.1 0 0 Z " fill="#000000" transform="translate(288,204)"/>
<path d="M0 0 C41.5490625 -0.061875 41.5490625 -0.061875 83.9375 -0.125 C92.65792725 -0.14320801 101.37835449 -0.16141602 110.36303711 -0.18017578 C121.07727051 -0.18920898 121.07727051 -0.18920898 126.10572815 -0.19088745 C129.59000742 -0.19273784 133.07422467 -0.20018087 136.55848694 -0.21115112 C141.02303925 -0.22501844 145.48750328 -0.22895512 149.95207512 -0.22614455 C151.57796733 -0.22673099 153.2038631 -0.23060763 154.82973659 -0.23843026 C168.88422053 -0.3028297 183.02383663 0.41520814 196.625 4.25 C197.41366455 4.46760986 198.2023291 4.68521973 199.01489258 4.90942383 C223.95035387 12.00471659 242.96387959 24.24510194 256 47 C268.74946358 70.3684685 270.79954124 99.61135406 263.58984375 125.01611328 C256.72837837 148.09403865 241.01203508 167.39239444 219.85253906 179.03417969 C190.46344738 194.35616792 158.63233014 195.46665722 126.24860382 195.30384064 C122.23364102 195.28650629 118.21873607 195.28593796 114.20373535 195.28381348 C102.5316232 195.26819306 90.85955808 195.22630955 79.1875 195.1875 C53.055625 195.125625 26.92375 195.06375 0 195 C0 130.65 0 66.3 0 0 Z " fill="#FDFEFE" transform="translate(386,539)"/>
<path d="M0 0 C23.161875 -0.04125 46.32375 -0.0825 70.1875 -0.125 C77.46192139 -0.14320801 84.73634277 -0.16141602 92.23120117 -0.18017578 C101.21350098 -0.18920898 101.21350098 -0.18920898 105.43769836 -0.19088745 C108.34597415 -0.19272746 111.25417461 -0.20012733 114.16242981 -0.21115112 C152.70782669 -0.35059423 194.02052775 0.36478723 224 28 C240.03204114 44.3749725 245.26897692 67.00920751 245.3190918 89.23608398 C245.02273879 112.47207148 236.28417874 133.47852624 220.0546875 150.171875 C204.42786043 165.27609999 182.81702494 170.76408622 162 174 C160.90235541 174.17516868 159.80471083 174.35033735 158.67380428 174.53081417 C155.15694752 174.97995605 151.81659033 175.12312781 148.27381897 175.12025452 C146.96271432 175.12163201 145.65160967 175.12300951 144.30077457 175.12442875 C142.85945171 175.12088276 141.41812907 175.11724487 139.97680664 175.11352539 C138.42404654 175.11321878 136.8712863 175.11335302 135.31852627 175.11389065 C131.17312125 175.11411573 127.02774529 175.10833415 122.88234711 175.10128021 C118.98760388 175.09557094 115.0928676 175.09531631 111.19812012 175.09460449 C99.81957625 175.08936425 88.44103776 175.07540304 77.0625 175.0625 C51.631875 175.041875 26.20125 175.02125 0 175 C0 117.25 0 59.5 0 0 Z " fill="#FCFDFD" transform="translate(386,285)"/>
</svg>
